<?xml version="1.0" encoding="UTF-8"?>
<svg version="1.1" xmlns="http://www.w3.org/2000/svg" width="100" height="101">
<path d="M0 0 C4.49164574 1.94580836 7.36756272 4.62812791 9.7734375 8.8828125 C11.56300481 13.87025878 11.58377067 19.13249673 11.671875 24.38671875 C12.40792969 24.32871094 13.14398438 24.27070313 13.90234375 24.2109375 C14.87816406 24.16582031 15.85398438 24.12070312 16.859375 24.07421875 C17.82230469 24.01621094 18.78523438 23.95820313 19.77734375 23.8984375 C23.84420578 24.58448035 25.09733688 26.2092708 27.671875 29.38671875 C28.30333475 32.10322581 28.6369168 34.30075409 28.78125 37.0390625 C28.86696259 38.14393761 28.86696259 38.14393761 28.95440674 39.27113342 C29.13171285 41.6211836 29.27732084 43.97195033 29.421875 46.32421875 C29.5330594 47.86929295 29.64632309 49.41421899 29.76171875 50.95898438 C30.03842902 54.72538671 30.28868622 58.4929936 30.53140259 62.26171875 C30.74555993 65.50138942 30.98980433 68.73876889 31.23046875 71.9765625 C31.58724127 76.99200252 31.88866032 81.98417916 31.984375 87.01171875 C32.04044922 88.98011719 32.04044922 88.98011719 32.09765625 90.98828125 C31.671875 94.38671875 31.671875 94.38671875 30.07128906 96.56776428 C26.86320183 98.99975995 24.8596277 98.88788351 20.85546875 98.88842773 C19.84010544 98.89653221 19.84010544 98.89653221 18.80422974 98.90480042 C16.57216332 98.91728277 14.34138814 98.90080191 12.109375 98.8828125 C10.55525647 98.8829675 9.00113756 98.88445668 7.44702148 98.88722229 C4.19204593 98.88860605 0.93751114 98.87605268 -2.31738281 98.85327148 C-6.48723062 98.82488649 -10.65634617 98.82762426 -14.82624817 98.8403616 C-18.03477215 98.84732047 -21.24312722 98.83952719 -24.45162964 98.82710457 C-25.98899691 98.82259207 -27.52638232 98.82225152 -29.06375122 98.82616997 C-31.21345106 98.82908435 -33.36214599 98.81256623 -35.51171875 98.79077148 C-36.73431396 98.7853685 -37.95690918 98.77996552 -39.21655273 98.7743988 C-42.57680119 98.35573544 -44.00488765 97.823207 -46.328125 95.38671875 C-46.67863316 92.77116372 -46.76876845 90.61338272 -46.6640625 88.0078125 C-46.64838226 87.26228622 -46.63270203 86.51675995 -46.61654663 85.74864197 C-46.38990053 77.19932883 -45.80485095 68.6626148 -45.15625 60.13647461 C-44.95153409 57.42817175 -44.76037508 54.71913213 -44.5703125 52.00976562 C-42.93189591 29.38641619 -42.93189591 29.38641619 -39.94262695 25.65917969 C-37.44590545 23.6914022 -35.2506784 24.09889445 -32.140625 24.19921875 C-31.05394531 24.22628906 -29.96726562 24.25335937 -28.84765625 24.28125 C-27.60048828 24.33345703 -27.60048828 24.33345703 -26.328125 24.38671875 C-26.30234375 23.51789062 -26.2765625 22.6490625 -26.25 21.75390625 C-25.88156114 14.2678985 -25.50445267 9.28533665 -19.80078125 3.9609375 C-13.76961262 -1.27393991 -7.76994844 -2.04678172 0 0 Z M-18.328125 10.38671875 C-21.24593003 15.16130879 -20.328125 18.21877896 -20.328125 24.38671875 C-11.748125 24.38671875 -3.168125 24.38671875 5.671875 24.38671875 C5.76086295 14.46596486 5.76086295 14.46596486 0.609375 7.01171875 C-6.51403796 3.07110732 -13.07620274 4.4783062 -18.328125 10.38671875 Z " fill="#FDB431" transform="translate(57.328125,1.61328125)"/>
<path d="M0 0 C4.49164574 1.94580836 7.36756272 4.62812791 9.7734375 8.8828125 C11.56300481 13.87025878 11.58377067 19.13249673 11.671875 24.38671875 C12.40792969 24.32871094 13.14398438 24.27070313 13.90234375 24.2109375 C14.87816406 24.16582031 15.85398438 24.12070312 16.859375 24.07421875 C17.82230469 24.01621094 18.78523438 23.95820313 19.77734375 23.8984375 C23.84420578 24.58448035 25.09733688 26.2092708 27.671875 29.38671875 C28.30333475 32.10322581 28.6369168 34.30075409 28.78125 37.0390625 C28.86696259 38.14393761 28.86696259 38.14393761 28.95440674 39.27113342 C29.13171285 41.6211836 29.27732084 43.97195033 29.421875 46.32421875 C29.5330594 47.86929295 29.64632309 49.41421899 29.76171875 50.95898438 C30.03842902 54.72538671 30.28868622 58.4929936 30.53140259 62.26171875 C30.74555993 65.50138942 30.98980433 68.73876889 31.23046875 71.9765625 C31.58724127 76.99200252 31.88866032 81.98417916 31.984375 87.01171875 C32.04044922 88.98011719 32.04044922 88.98011719 32.09765625 90.98828125 C31.671875 94.38671875 31.671875 94.38671875 30.07128906 96.56776428 C26.86320183 98.99975995 24.8596277 98.88788351 20.85546875 98.88842773 C19.84010544 98.89653221 19.84010544 98.89653221 18.80422974 98.90480042 C16.57216332 98.91728277 14.34138814 98.90080191 12.109375 98.8828125 C10.55525647 98.8829675 9.00113756 98.88445668 7.44702148 98.88722229 C4.19204593 98.88860605 0.93751114 98.87605268 -2.31738281 98.85327148 C-6.48723062 98.82488649 -10.65634617 98.82762426 -14.82624817 98.8403616 C-18.03477215 98.84732047 -21.24312722 98.83952719 -24.45162964 98.82710457 C-25.98899691 98.82259207 -27.52638232 98.82225152 -29.06375122 98.82616997 C-31.21345106 98.82908435 -33.36214599 98.81256623 -35.51171875 98.79077148 C-36.73431396 98.7853685 -37.95690918 98.77996552 -39.21655273 98.7743988 C-42.57680119 98.35573544 -44.00488765 97.823207 -46.328125 95.38671875 C-46.67863316 92.77116372 -46.76876845 90.61338272 -46.6640625 88.0078125 C-46.64838226 87.26228622 -46.63270203 86.51675995 -46.61654663 85.74864197 C-46.38990053 77.19932883 -45.80485095 68.6626148 -45.15625 60.13647461 C-44.95153409 57.42817175 -44.76037508 54.71913213 -44.5703125 52.00976562 C-42.93189591 29.38641619 -42.93189591 29.38641619 -39.94262695 25.65917969 C-37.44590545 23.6914022 -35.2506784 24.09889445 -32.140625 24.19921875 C-31.05394531 24.22628906 -29.96726562 24.25335937 -28.84765625 24.28125 C-27.60048828 24.33345703 -27.60048828 24.33345703 -26.328125 24.38671875 C-26.30234375 23.51789062 -26.2765625 22.6490625 -26.25 21.75390625 C-25.88156114 14.2678985 -25.50445267 9.28533665 -19.80078125 3.9609375 C-13.76961262 -1.27393991 -7.76994844 -2.04678172 0 0 Z M-18.328125 10.38671875 C-21.24593003 15.16130879 -20.328125 18.21877896 -20.328125 24.38671875 C-11.748125 24.38671875 -3.168125 24.38671875 5.671875 24.38671875 C5.76086295 14.46596486 5.76086295 14.46596486 0.609375 7.01171875 C-6.51403796 3.07110732 -13.07620274 4.4783062 -18.328125 10.38671875 Z M-37.328125 30.38671875 C-37.69949915 33.26408824 -38.00371683 36.12352775 -38.265625 39.01171875 C-38.34989746 39.92091064 -38.43416992 40.83010254 -38.52099609 41.7668457 C-39.28800546 50.36061148 -39.8864679 58.96539464 -40.453125 67.57421875 C-40.54070068 68.88535645 -40.62827637 70.19649414 -40.71850586 71.54736328 C-41.49351092 81.96065198 -41.49351092 81.96065198 -41.328125 92.38671875 C-39.50256383 94.21227992 -36.62273897 93.51444278 -34.171875 93.51611328 C-32.85380859 93.51926544 -31.53574219 93.5224176 -30.17773438 93.52566528 C-28.72786425 93.5238755 -27.27799442 93.52182455 -25.828125 93.51953125 C-24.35221338 93.52020432 -22.87630187 93.52117438 -21.40039062 93.52243042 C-18.30337471 93.52390723 -15.20638758 93.52175339 -12.109375 93.51708984 C-8.13103951 93.51139255 -4.15277148 93.51467165 -0.17443848 93.52066231 C2.87435417 93.52426838 5.92313071 93.52312912 8.97192383 93.52053452 C10.43920906 93.51986537 11.90649574 93.52069322 13.3737793 93.52301407 C15.42106093 93.52554132 17.46834766 93.52100935 19.515625 93.51611328 C20.68287109 93.51531769 21.85011719 93.51452209 23.05273438 93.51370239 C25.59826948 93.68433587 25.59826948 93.68433587 26.671875 92.38671875 C27.07126498 85.24594616 26.55449521 78.05760057 26.05078125 70.93359375 C25.98656479 69.98913391 25.92234833 69.04467407 25.85618591 68.07159424 C25.72094576 66.09513161 25.58388932 64.11879247 25.44506836 62.14257812 C25.23394049 59.13051986 25.02963885 56.11805321 24.82617188 53.10546875 C24.69311102 51.17314931 24.55966103 49.24085662 24.42578125 47.30859375 C24.3653212 46.41678406 24.30486115 45.52497437 24.24256897 44.60614014 C24.27870054 36.46027142 24.27870054 36.46027142 21.671875 29.38671875 C19.98578534 29.31466364 18.29686841 29.30285807 16.609375 29.32421875 C15.69027344 29.33324219 14.77117187 29.34226562 13.82421875 29.3515625 C13.11394531 29.36316406 12.40367188 29.37476562 11.671875 29.38671875 C11.341875 32.02671875 11.011875 34.66671875 10.671875 37.38671875 C9.681875 37.05671875 8.691875 36.72671875 7.671875 36.38671875 C7.176875 32.92171875 7.176875 32.92171875 6.671875 29.38671875 C-2.568125 29.38671875 -11.808125 29.38671875 -21.328125 29.38671875 C-21.658125 31.69671875 -21.988125 34.00671875 -22.328125 36.38671875 C-23.318125 36.71671875 -24.308125 37.04671875 -25.328125 37.38671875 C-25.658125 34.74671875 -25.988125 32.10671875 -26.328125 29.38671875 C-27.97387066 29.35983724 -29.61973913 29.34037752 -31.265625 29.32421875 C-32.64041016 29.30681641 -32.64041016 29.30681641 -34.04296875 29.2890625 C-36.29405827 29.12722826 -36.29405827 29.12722826 -37.328125 30.38671875 Z " fill="#020200" transform="translate(57.328125,1.61328125)"/>
</svg>
