<svg xmlns="http://www.w3.org/2000/svg" version="1.1" viewBox="-5.0 -10.0 110.0 135.0">
 <path d="m91.809 18.191c5.0898 5.8477 7.6523 13.473 7.1289 21.207-0.52344 7.7305-4.0898 14.941-9.918 20.055l-35.789 31.242c-0.89453 0.78906-2.0742 1.1719-3.2617 1.0508-1.1953 0.125-2.3828-0.25781-3.2852-1.0508l-35.789-31.242c-5.8398-5.1172-9.4062-12.344-9.918-20.09-0.51172-7.7461 2.0742-15.379 7.1914-21.215 5.1172-5.8398 12.344-9.4062 20.09-9.918 7.7461-0.51172 15.375 2.0742 21.215 7.1914l0.52734 0.47266 0.52734-0.47266c5.8438-5.082 13.465-7.6445 21.191-7.125 7.7266 0.51562 14.938 4.0742 20.051 9.8945zm-10.965 27.207c-1.0781 2.1367-3.6797 3-5.8164 1.9219-2.1367-1.0742-2.9961-3.6797-1.9219-5.8164 0.80469-1.5312 0.85938-3.3477 0.15234-4.9297-0.71094-1.5781-2.1055-2.7461-3.7852-3.1641-1.1523-0.28516-2.3672-0.20703-3.4727 0.22266-1.0859 0.46484-2.3125 0.47266-3.4023 0.011719-1.0898-0.46094-1.9414-1.3438-2.3633-2.4453-0.42188-1.1055-0.375-2.332 0.12891-3.4023 0.50391-1.0664 1.4219-1.8828 2.543-2.2617 2.7422-1.043 5.7383-1.2266 8.5898-0.52344 4.25 1.0312 7.793 3.9531 9.6172 7.9258 1.8203 3.9766 1.7227 8.5703-0.26953 12.461zm9.4727-6.5781c0.34375-5.4336-1.4805-10.781-5.0703-14.875s-8.6523-6.5977-14.086-6.9648c-5.4297-0.37109-10.789 1.4258-14.898 5l-3.3477 2.9258c-1.6328 1.4336-4.0781 1.4336-5.7148 0l-3.3984-2.957c-4.1211-3.5742-9.4844-5.3789-14.93-5.0156-5.4414 0.35938-10.52 2.8555-14.133 6.9414-3.582 4.1172-5.3867 9.4844-5.0234 14.93 0.36328 5.4453 2.8633 10.523 6.957 14.133l33.34 29.168 33.316-29.168c4.1016-3.5938 6.6016-8.6758 6.957-14.117z"/>
</svg>