<svg xmlns="http://www.w3.org/2000/svg" version="1.1" viewBox="-5.0 -10.0 110.0 135.0">
 <path d="m91.633 18.715c4.668 5.3867 7.0234 12.398 6.5469 19.512-0.47266 7.1133-3.7383 13.75-9.0859 18.469l-38.641 33.746-0.44141-0.50391-0.45312 0.50391-38.645-33.746c-7.2344-6.332-10.543-16.047-8.6797-25.48 1.8672-9.4336 8.625-17.156 17.727-20.258 9.1055-3.1016 19.172-1.1094 26.406 5.2227l3.6406 3.1562 3.6328-3.1562c5.3867-4.6797 12.402-7.0391 19.52-6.5625 7.1172 0.47266 13.758 3.7461 18.473 9.0977zm-9.6953 25.633c-0.89844 1.2969-2.6172 1.7266-4.0234 1.0156-1.4062-0.71484-2.0703-2.3555-1.5547-3.8477 1.4648-2.8438 1.0117-6.2969-1.1328-8.6641-2.1445-2.3711-5.5352-3.1641-8.5117-1.9883-0.80078 0.4375-1.7539 0.50391-2.6094 0.1875-0.85547-0.32031-1.5312-0.99219-1.8555-1.8438-0.32031-0.85547-0.25781-1.8086 0.17188-2.6133 0.43359-0.80469 1.1914-1.3789 2.082-1.582 5.3906-2.0938 11.512-0.63672 15.383 3.6562 3.8711 4.293 4.6875 10.535 2.0508 15.68z" fill-rule="evenodd"/>
</svg>